<?xml version="1.0" encoding="UTF-8" standalone="no"?>
<!-- Created with Inkscape (http://www.inkscape.org/) -->

<svg
   width="35.026131mm"
   height="28.023457mm"
   viewBox="0 0 35.02613 28.023457"
   version="1.1"
   id="svg1"
   xml:space="preserve"
   xmlns="http://www.w3.org/2000/svg"
   xmlns:svg="http://www.w3.org/2000/svg"><defs
     id="defs1"><filter
       style="color-interpolation-filters:sRGB"
       id="filter199"
       x="-0.0054986083"
       y="-0.0068915728"
       width="1.0109972"
       height="1.0137831"><feFlood
         result="flood"
         in="SourceGraphic"
         flood-opacity="1.000000"
         flood-color="rgb(128,0,32)"
         id="feFlood198" /><feGaussianBlur
         result="blur"
         in="SourceGraphic"
         stdDeviation="0.300000"
         id="feGaussianBlur198" /><feOffset
         result="offset"
         in="blur"
         dx="0.000000"
         dy="-0.000000"
         id="feOffset198" /><feComposite
         result="comp1"
         operator="in"
         in="offset"
         in2="flood"
         id="feComposite198" /><feComposite
         result="comp2"
         operator="over"
         in="SourceGraphic"
         in2="comp1"
         id="feComposite199" /></filter><filter
       style="color-interpolation-filters:sRGB"
       id="filter201"
       x="-0.053620711"
       y="-0.053211443"
       width="1.1072414"
       height="1.1064229"><feFlood
         result="flood"
         in="SourceGraphic"
         flood-opacity="1.000000"
         flood-color="rgb(128,0,32)"
         id="feFlood199" /><feGaussianBlur
         result="blur"
         in="SourceGraphic"
         stdDeviation="0.300000"
         id="feGaussianBlur199" /><feOffset
         result="offset"
         in="blur"
         dx="0.000000"
         dy="-0.000000"
         id="feOffset199" /><feComposite
         result="comp1"
         operator="in"
         in="offset"
         in2="flood"
         id="feComposite200" /><feComposite
         result="comp2"
         operator="over"
         in="SourceGraphic"
         in2="comp1"
         id="feComposite201" /></filter><filter
       style="color-interpolation-filters:sRGB"
       id="filter203"
       x="-0.053243291"
       y="-0.052878083"
       width="1.1064866"
       height="1.1057562"><feFlood
         result="flood"
         in="SourceGraphic"
         flood-opacity="1.000000"
         flood-color="rgb(128,0,32)"
         id="feFlood201" /><feGaussianBlur
         result="blur"
         in="SourceGraphic"
         stdDeviation="0.300000"
         id="feGaussianBlur201" /><feOffset
         result="offset"
         in="blur"
         dx="0.000000"
         dy="-0.000000"
         id="feOffset201" /><feComposite
         result="comp1"
         operator="in"
         in="offset"
         in2="flood"
         id="feComposite202" /><feComposite
         result="comp2"
         operator="over"
         in="SourceGraphic"
         in2="comp1"
         id="feComposite203" /></filter><filter
       style="color-interpolation-filters:sRGB"
       id="filter205"
       x="-0.053619828"
       y="-0.052996323"
       width="1.1072397"
       height="1.1059926"><feFlood
         result="flood"
         in="SourceGraphic"
         flood-opacity="1.000000"
         flood-color="rgb(128,0,32)"
         id="feFlood203" /><feGaussianBlur
         result="blur"
         in="SourceGraphic"
         stdDeviation="0.300000"
         id="feGaussianBlur203" /><feOffset
         result="offset"
         in="blur"
         dx="0.000000"
         dy="-0.000000"
         id="feOffset203" /><feComposite
         result="comp1"
         operator="in"
         in="offset"
         in2="flood"
         id="feComposite204" /><feComposite
         result="comp2"
         operator="over"
         in="SourceGraphic"
         in2="comp1"
         id="feComposite205" /></filter><filter
       style="color-interpolation-filters:sRGB"
       id="filter207"
       x="-0.053312711"
       y="-0.053212475"
       width="1.1066254"
       height="1.1064249"><feFlood
         result="flood"
         in="SourceGraphic"
         flood-opacity="1.000000"
         flood-color="rgb(128,0,32)"
         id="feFlood205" /><feGaussianBlur
         result="blur"
         in="SourceGraphic"
         stdDeviation="0.300000"
         id="feGaussianBlur205" /><feOffset
         result="offset"
         in="blur"
         dx="0.000000"
         dy="-0.000000"
         id="feOffset205" /><feComposite
         result="comp1"
         operator="in"
         in="offset"
         in2="flood"
         id="feComposite206" /><feComposite
         result="comp2"
         operator="over"
         in="SourceGraphic"
         in2="comp1"
         id="feComposite207" /></filter><filter
       style="color-interpolation-filters:sRGB"
       id="filter209"
       x="-0.053010806"
       y="-0.053323691"
       width="1.1060216"
       height="1.1066474"><feFlood
         result="flood"
         in="SourceGraphic"
         flood-opacity="1.000000"
         flood-color="rgb(128,0,32)"
         id="feFlood207" /><feGaussianBlur
         result="blur"
         in="SourceGraphic"
         stdDeviation="0.300000"
         id="feGaussianBlur207" /><feOffset
         result="offset"
         in="blur"
         dx="0.000000"
         dy="-0.000000"
         id="feOffset207" /><feComposite
         result="comp1"
         operator="in"
         in="offset"
         in2="flood"
         id="feComposite208" /><feComposite
         result="comp2"
         operator="over"
         in="SourceGraphic"
         in2="comp1"
         id="feComposite209" /></filter><filter
       style="color-interpolation-filters:sRGB"
       id="filter211"
       x="-0.053024517"
       y="-0.053224697"
       width="1.106049"
       height="1.1064494"><feFlood
         result="flood"
         in="SourceGraphic"
         flood-opacity="1.000000"
         flood-color="rgb(128,0,32)"
         id="feFlood209" /><feGaussianBlur
         result="blur"
         in="SourceGraphic"
         stdDeviation="0.300000"
         id="feGaussianBlur209" /><feOffset
         result="offset"
         in="blur"
         dx="0.000000"
         dy="-0.000000"
         id="feOffset209" /><feComposite
         result="comp1"
         operator="in"
         in="offset"
         in2="flood"
         id="feComposite210" /><feComposite
         result="comp2"
         operator="over"
         in="SourceGraphic"
         in2="comp1"
         id="feComposite211" /></filter><filter
       style="color-interpolation-filters:sRGB"
       id="filter213"
       x="-0.052741837"
       y="-0.053053608"
       width="1.1054837"
       height="1.1061072"><feFlood
         result="flood"
         in="SourceGraphic"
         flood-opacity="1.000000"
         flood-color="rgb(128,0,32)"
         id="feFlood211" /><feGaussianBlur
         result="blur"
         in="SourceGraphic"
         stdDeviation="0.300000"
         id="feGaussianBlur211" /><feOffset
         result="offset"
         in="blur"
         dx="0.000000"
         dy="-0.000000"
         id="feOffset211" /><feComposite
         result="comp1"
         operator="in"
         in="offset"
         in2="flood"
         id="feComposite212" /><feComposite
         result="comp2"
         operator="over"
         in="SourceGraphic"
         in2="comp1"
         id="feComposite213" /></filter><filter
       style="color-interpolation-filters:sRGB"
       id="filter215"
       x="-0.053576211"
       y="-0.053123242"
       width="1.1071524"
       height="1.1062465"><feFlood
         result="flood"
         in="SourceGraphic"
         flood-opacity="1.000000"
         flood-color="rgb(128,0,32)"
         id="feFlood213" /><feGaussianBlur
         result="blur"
         in="SourceGraphic"
         stdDeviation="0.300000"
         id="feGaussianBlur213" /><feOffset
         result="offset"
         in="blur"
         dx="0.000000"
         dy="-0.000000"
         id="feOffset213" /><feComposite
         result="comp1"
         operator="in"
         in="offset"
         in2="flood"
         id="feComposite214" /><feComposite
         result="comp2"
         operator="over"
         in="SourceGraphic"
         in2="comp1"
         id="feComposite215" /></filter><filter
       style="color-interpolation-filters:sRGB"
       id="filter217"
       x="-0.053182665"
       y="-0.052981306"
       width="1.1063653"
       height="1.1059626"><feFlood
         result="flood"
         in="SourceGraphic"
         flood-opacity="1.000000"
         flood-color="rgb(128,0,32)"
         id="feFlood215" /><feGaussianBlur
         result="blur"
         in="SourceGraphic"
         stdDeviation="0.300000"
         id="feGaussianBlur215" /><feOffset
         result="offset"
         in="blur"
         dx="0.000000"
         dy="-0.000000"
         id="feOffset215" /><feComposite
         result="comp1"
         operator="in"
         in="offset"
         in2="flood"
         id="feComposite216" /><feComposite
         result="comp2"
         operator="over"
         in="SourceGraphic"
         in2="comp1"
         id="feComposite217" /></filter><filter
       style="color-interpolation-filters:sRGB"
       id="filter219"
       x="-0.053063699"
       y="-0.053311184"
       width="1.1061274"
       height="1.1066224"><feFlood
         result="flood"
         in="SourceGraphic"
         flood-opacity="1.000000"
         flood-color="rgb(128,0,32)"
         id="feFlood217" /><feGaussianBlur
         result="blur"
         in="SourceGraphic"
         stdDeviation="0.300000"
         id="feGaussianBlur217" /><feOffset
         result="offset"
         in="blur"
         dx="0.000000"
         dy="-0.000000"
         id="feOffset217" /><feComposite
         result="comp1"
         operator="in"
         in="offset"
         in2="flood"
         id="feComposite218" /><feComposite
         result="comp2"
         operator="over"
         in="SourceGraphic"
         in2="comp1"
         id="feComposite219" /></filter><filter
       style="color-interpolation-filters:sRGB"
       id="filter221"
       x="-0.053005896"
       y="-0.053638757"
       width="1.1060118"
       height="1.1072775"><feFlood
         result="flood"
         in="SourceGraphic"
         flood-opacity="1.000000"
         flood-color="rgb(128,0,32)"
         id="feFlood219" /><feGaussianBlur
         result="blur"
         in="SourceGraphic"
         stdDeviation="0.300000"
         id="feGaussianBlur219" /><feOffset
         result="offset"
         in="blur"
         dx="0.000000"
         dy="-0.000000"
         id="feOffset219" /><feComposite
         result="comp1"
         operator="in"
         in="offset"
         in2="flood"
         id="feComposite220" /><feComposite
         result="comp2"
         operator="over"
         in="SourceGraphic"
         in2="comp1"
         id="feComposite221" /></filter></defs><g
     id="layer1"
     transform="translate(-19.602507,-119.69876)"><path
       style="opacity:0.05;fill:#dfc8ca;stroke-width:0.388555;stroke-linecap:round;stroke-linejoin:round;paint-order:markers fill stroke;filter:url(#filter221)"
       d="m 64.088749,35.4421 c -2.061163,-0.660494 -3.793111,-2.452411 -4.456446,-4.610748 -0.731821,-2.381172 -0.105962,-4.844817 1.682088,-6.621413 1.599355,-1.589111 2.478304,-1.941641 4.841012,-1.941641 1.863959,0 1.998931,0.02736 3.111687,0.630769 1.438265,0.77992 2.323864,1.740193 3.076648,3.336073 0.503054,1.066459 0.578708,1.426498 0.571749,2.720941 -0.0068,1.273211 -0.0931,1.673665 -0.588574,2.732463 -0.694392,1.483882 -1.883009,2.701239 -3.327511,3.407968 -1.280866,0.626669 -3.537836,0.785504 -4.910653,0.345588 z"
       id="path3"
       transform="matrix(0.26458333,0,0,0.26458333,19.60275,119.66832)" /><path
       style="opacity:1;fill:#fee680;fill-opacity:1;stroke-width:0.388555;stroke-linecap:round;stroke-linejoin:round;paint-order:markers fill stroke;filter:url(#filter219)"
       d="m 64.206927,35.474553 c -1.852054,-0.615843 -3.379112,-1.956485 -4.262586,-3.742228 -0.486437,-0.983224 -0.55117,-1.308701 -0.553612,-2.783537 -0.0024,-1.42326 0.07032,-1.826965 0.491654,-2.731219 0.655595,-1.40701 1.934057,-2.741403 3.252407,-3.394694 0.885249,-0.438673 1.37332,-0.545345 2.799964,-0.611952 1.68671,-0.07875 1.76039,-0.06458 3.096162,0.5956 5.257177,2.598238 5.232556,9.689657 -0.04268,12.291584 -1.181587,0.582799 -3.590388,0.772451 -4.781313,0.376446 z"
       id="path4"
       transform="matrix(0.26458333,0,0,0.26458333,19.60275,119.66832)" /><path
       style="opacity:1;fill:#83c167;fill-opacity:1;stroke-width:0.388555;stroke-linecap:round;stroke-linejoin:round;paint-order:markers fill stroke;filter:url(#filter217)"
       d="m 52.701639,55.808489 c -1.380895,-0.608949 -1.865062,-0.937919 -2.705187,-1.838054 -1.507168,-1.614827 -2.197241,-3.752574 -1.832383,-5.676463 0.855531,-4.511196 5.4308,-6.989468 9.544341,-5.169853 1.179701,0.521838 2.780417,2.100777 3.386279,3.340209 0.445324,0.911015 0.509373,1.262057 0.511658,2.804282 0.0023,1.553997 -0.06071,1.900002 -0.531739,2.919803 -0.648995,1.405105 -1.937234,2.667432 -3.41492,3.346231 -1.392243,0.639549 -3.824157,0.773869 -4.958049,0.273845 z"
       id="path5"
       transform="matrix(0.26458333,0,0,0.26458333,19.60275,119.66832)" /><path
       style="opacity:1;fill:#83c167;fill-opacity:1;stroke-width:0.388555;stroke-linecap:round;stroke-linejoin:round;paint-order:markers fill stroke;filter:url(#filter215)"
       d="m 75.423714,55.876294 c -2.012177,-0.77422 -3.570902,-2.144253 -4.304978,-3.783836 -0.594096,-1.326933 -0.664393,-3.714129 -0.14958,-5.079493 1.330012,-3.527394 5.32788,-5.374616 8.785604,-4.059404 1.41345,0.537633 3.1019,2.095967 3.790678,3.498559 0.461406,0.939585 0.517388,1.254369 0.517388,2.909274 0,1.757525 -0.03328,1.917066 -0.629162,3.015888 -0.737877,1.360672 -1.823194,2.420421 -3.204657,3.12916 -0.805397,0.413197 -1.28637,0.519199 -2.568317,0.566033 -1.019972,0.03726 -1.810427,-0.03206 -2.236976,-0.196181 z"
       id="path6"
       transform="matrix(0.26458333,0,0,0.26458333,19.60275,119.66832)" /><path
       style="opacity:1;fill:#5cd0b3;fill-opacity:1;stroke-width:0.388555;stroke-linecap:round;stroke-linejoin:round;paint-order:markers fill stroke;filter:url(#filter213)"
       d="m 41.23907,76.09817 c -2.086063,-0.857838 -3.386349,-2.282036 -4.057482,-4.444143 -0.72785,-2.344823 -0.147254,-4.722358 1.612667,-6.603856 1.295571,-1.38507 2.542201,-1.925343 4.655853,-2.017787 1.605176,-0.07021 1.796672,-0.03824 2.920043,0.487451 3.287331,1.538327 4.861569,4.859807 3.855255,8.134192 -1.180146,3.840008 -5.391185,5.922554 -8.986336,4.444143 z"
       id="path7"
       transform="matrix(0.26458333,0,0,0.26458333,19.60275,119.66832)" /><path
       style="opacity:1;fill:#5cd0b3;fill-opacity:1;stroke-width:0.388555;stroke-linecap:round;stroke-linejoin:round;paint-order:markers fill stroke;filter:url(#filter211)"
       d="m 63.723047,76.121412 c -1.335669,-0.563569 -2.040884,-1.072015 -2.840705,-2.04809 -1.106063,-1.349805 -1.46977,-2.40292 -1.485956,-4.302595 -0.01304,-1.530366 0.03767,-1.77894 0.593317,-2.908184 0.769517,-1.563906 2.228666,-2.938691 3.707528,-3.49317 1.496969,-0.561268 3.994815,-0.477463 5.334493,0.178977 1.223829,0.599674 2.777528,2.171392 3.334163,3.372832 1.576721,3.40319 -0.02611,7.529738 -3.534514,9.099746 -1.406506,0.629411 -3.745708,0.675424 -5.108326,0.100484 z"
       id="path8"
       transform="matrix(0.26458333,0,0,0.26458333,19.60275,119.66832)" /><path
       style="opacity:1;fill:#5cd0b3;fill-opacity:1;stroke-width:0.388555;stroke-linecap:round;stroke-linejoin:round;paint-order:markers fill stroke;filter:url(#filter209)"
       d="M 86.557863,76.288901 C 84.4857,75.4916 83.181324,74.320697 82.334003,72.497255 c -0.413098,-0.888991 -0.490045,-1.313946 -0.493689,-2.726528 -0.0039,-1.519936 0.0514,-1.786636 0.603256,-2.908184 0.769517,-1.563906 2.228667,-2.938691 3.707529,-3.49317 1.462871,-0.548484 3.985849,-0.466421 5.293675,0.172182 2.07085,1.011184 3.493309,2.934301 3.892003,5.261858 0.497434,2.903997 -1.217058,5.948726 -4.068394,7.224972 -1.119775,0.501207 -3.712326,0.644588 -4.71052,0.260516 z"
       id="path9"
       transform="matrix(0.26458333,0,0,0.26458333,19.60275,119.66832)" /><path
       style="opacity:1;fill:#fc8630;fill-opacity:1;stroke-width:0.388555;stroke-linecap:round;stroke-linejoin:round;paint-order:markers fill stroke;filter:url(#filter207)"
       d="m 97.578926,96.627558 c -1.928192,-0.688395 -3.70634,-2.544609 -4.259121,-4.44611 -0.193147,-0.664403 -0.271962,-1.507362 -0.229126,-2.450619 0.123344,-2.716078 1.780867,-4.974043 4.362136,-5.942327 1.571239,-0.589403 3.820055,-0.48815 5.300085,0.238636 2.30686,1.132814 3.67203,3.168414 3.81819,5.693312 0.17082,2.95076 -1.29208,5.400023 -3.95135,6.615554 -1.46929,0.671601 -3.626779,0.796387 -5.040814,0.291554 z"
       id="path10"
       transform="matrix(0.26458333,0,0,0.26458333,19.60275,119.66832)" /><path
       style="opacity:1;fill:#fc8630;fill-opacity:1;stroke-width:0.388555;stroke-linecap:round;stroke-linejoin:round;paint-order:markers fill stroke;filter:url(#filter205)"
       d="m 75.424686,96.717851 c -1.183681,-0.334259 -2.04789,-0.91195 -3.121397,-2.086538 -1.312697,-1.4363 -1.75135,-2.687581 -1.655731,-4.723059 0.09228,-1.964496 0.634832,-3.241995 1.92463,-4.531794 2.089264,-2.089264 5.246715,-2.644038 7.765639,-1.364448 1.124301,0.571135 2.647407,2.12465 3.213793,3.277957 0.454418,0.925313 0.511206,1.247088 0.511206,2.896639 0,1.760925 -0.03244,1.915514 -0.635145,3.027113 -0.723849,1.335022 -2.007034,2.576882 -3.302625,3.196261 -1.078436,0.515566 -3.421429,0.669029 -4.70037,0.307869 z"
       id="path11"
       transform="matrix(0.26458333,0,0,0.26458333,19.60275,119.66832)" /><path
       style="opacity:1;fill:#fc8630;fill-opacity:1;stroke-width:0.388555;stroke-linecap:round;stroke-linejoin:round;paint-order:markers fill stroke;filter:url(#filter203)"
       d="m 52.658561,96.597045 c -1.190301,-0.428404 -1.787786,-0.844084 -2.814899,-1.95837 -2.457931,-2.66654 -2.325318,-6.754586 0.301944,-9.307992 2.837451,-2.757686 6.958495,-2.665159 9.684742,0.217446 1.425336,1.507082 1.774279,2.399876 1.776657,4.545694 0.0017,1.544921 -0.06235,1.900583 -0.51806,2.876322 -0.561924,1.20315 -1.499601,2.292227 -2.559802,2.973113 -1.577685,1.013226 -4.093452,1.293399 -5.870582,0.653787 z"
       id="path12"
       transform="matrix(0.26458333,0,0,0.26458333,19.60275,119.66832)" /><path
       style="opacity:1;fill:#fc8630;fill-opacity:1;stroke-width:0.388555;stroke-linecap:round;stroke-linejoin:round;paint-order:markers fill stroke;filter:url(#filter201)"
       d="m 30.204694,96.608047 c -1.197283,-0.444484 -1.794351,-0.862207 -2.8149,-1.969372 -1.276365,-1.384693 -1.593032,-2.272409 -1.594462,-4.469779 -0.0012,-1.776224 0.03247,-1.939375 0.648272,-3.145202 0.77335,-1.51433 2.02902,-2.628028 3.647608,-3.235192 1.573233,-0.59015 3.819886,-0.488232 5.304142,0.24062 2.281162,1.120177 3.669438,3.191715 3.814139,5.691328 0.170817,2.95076 -1.292085,5.400023 -3.951354,6.615554 -1.493197,0.682528 -3.636892,0.79793 -5.053445,0.272043 z"
       id="path13"
       transform="matrix(0.26458333,0,0,0.26458333,19.60275,119.66832)" /><path
       style="opacity:1;fill:#c55f73;fill-opacity:1;stroke-width:0.388555;stroke-linecap:round;stroke-linejoin:round;paint-order:markers fill stroke;filter:url(#filter199)"
       d="M 0.72020789,105.02274 C 0.88706972,104.5879 17.900771,77.39378 48.024786,29.412711 64.512392,3.1515027 65.980854,0.83506118 66.141027,0.83506118 c 0.159337,0 1.000284,1.32647102 17.705705,27.92815782 29.752138,47.377255 47.814578,76.252531 47.814578,76.438111 0,0.06 -29.48659,0.10916 -65.525761,0.10916 -59.1207433,0 -65.51497092,-0.0281 -65.41534111,-0.28775 z m 124.35286211,-3.454 c 0.0677,-0.0677 -1.10864,-2.11364 -2.61416,-4.546448 C 116.08867,86.728426 78.009354,25.949565 70.333887,13.824902 68.621706,11.120231 67.002594,8.5524183 66.735861,8.1186504 66.188339,7.2282623 66.14031,7.2030715 65.851327,7.6547275 60.362624,16.233105 12.025115,93.326278 8.5653174,99.019803 c -0.7814978,1.286057 -1.4209051,2.435777 -1.4209051,2.554947 0,0.16484 14.0922217,0.20477 58.9027557,0.16691 32.396515,-0.0274 58.958172,-0.10519 59.025902,-0.17292 z"
       id="path14"
       transform="matrix(0.26458333,0,0,0.26458333,19.60275,119.66832)" /></g></svg>
