<?xml version="1.0" encoding="UTF-8" standalone="no"?>
<!-- Created with Inkscape (http://www.inkscape.org/) -->

<svg
   width="34.999439mm"
   height="27.959858mm"
   viewBox="0 0 34.999439 27.959858"
   version="1.1"
   id="svg1"
   xml:space="preserve"
   sodipodi:docname="tetraktys-contour.svg"
   inkscape:version="1.4.2 (ebf0e940, 2025-05-08)"
   xmlns:inkscape="http://www.inkscape.org/namespaces/inkscape"
   xmlns:sodipodi="http://sodipodi.sourceforge.net/DTD/sodipodi-0.dtd"
   xmlns="http://www.w3.org/2000/svg"
   xmlns:svg="http://www.w3.org/2000/svg"><sodipodi:namedview
     id="namedview1"
     pagecolor="#ffffff"
     bordercolor="#000000"
     borderopacity="0.25"
     inkscape:showpageshadow="2"
     inkscape:pageopacity="0.0"
     inkscape:pagecheckerboard="0"
     inkscape:deskcolor="#d1d1d1"
     inkscape:document-units="mm"
     inkscape:zoom="5.3888267"
     inkscape:cx="57.248084"
     inkscape:cy="46.485073"
     inkscape:window-width="1920"
     inkscape:window-height="1052"
     inkscape:window-x="0"
     inkscape:window-y="28"
     inkscape:window-maximized="0"
     inkscape:current-layer="layer1"><inkscape:page
       x="-1.1205541e-22"
       y="0"
       width="34.999439"
       height="27.959858"
       id="page2"
       margin="0"
       bleed="0" /></sodipodi:namedview><defs
     id="defs1" /><g
     inkscape:label="Layer 1"
     inkscape:groupmode="layer"
     id="layer1"
     transform="translate(-19.60275,-119.66832)"><path
       style="fill:#000000;stroke-width:0;stroke-dasharray:none"
       d="m 19.602972,147.57115 c 0.0082,-0.0313 3.781462,-6.07108 8.385034,-13.42163 4.603572,-7.35055 8.527001,-13.61582 8.718733,-13.92282 0.199228,-0.31901 0.36884,-0.55827 0.395834,-0.55839 0.02721,-1.1e-4 0.194935,0.23648 0.395693,0.55818 0.191655,0.30711 4.114971,6.57203 8.718471,13.92203 4.60351,7.35001 8.37684,13.38975 8.38518,13.42164 0.0147,0.0563 -0.5031,0.058 -17.499344,0.058 -16.885734,0 -17.513969,-0.002 -17.499601,-0.057 z m 34.903135,-0.0453 c -0.0471,-0.11653 -17.377339,-27.74853 -17.403357,-27.74853 -0.02597,0 -17.355977,27.63115 -17.403631,27.74853 -0.01277,0.0315 3.480376,0.0394 17.403454,0.0394 13.923034,0 17.416244,-0.008 17.403534,-0.0394 z m -33.006662,-0.96987 c -0.01126,-0.0182 0.553695,-0.94988 1.255456,-2.07035 0.701762,-1.12047 4.208989,-6.72023 7.793839,-12.4439 3.584849,-5.72368 6.534118,-10.40669 6.553929,-10.40669 0.04305,0 15.621478,24.86132 15.606908,24.90677 -0.0145,0.0452 -31.18221,0.0594 -31.210132,0.0142 z m 31.126562,-0.0463 c 0,-0.0345 -15.501508,-24.76447 -15.523126,-24.76447 -0.0214,0 -15.523742,24.73086 -15.523742,24.765 0,0.009 6.985545,0.0158 15.523434,0.0158 8.537884,0 15.523434,-0.007 15.523434,-0.0164 z m -24.934602,-1.14796 c -0.492057,-0.13327 -0.94698,-0.49386 -1.172783,-0.92958 -0.140214,-0.27057 -0.174807,-0.3777 -0.21527,-0.66666 -0.132573,-0.94676 0.485416,-1.84652 1.435078,-2.0894 0.933681,-0.23879 1.928247,0.29605 2.249344,1.20963 0.126042,0.35861 0.136997,0.86813 0.02614,1.21565 -0.07919,0.24826 -0.270496,0.55813 -0.468353,0.75863 -0.369603,0.37453 -0.734275,0.53241 -1.275286,0.5521 -0.276911,0.0101 -0.392987,-2e-5 -0.578869,-0.0504 z m 1.106022,-0.10379 c 0.310687,-0.1139 0.543096,-0.26516 0.745769,-0.48536 0.310749,-0.33762 0.476331,-0.76524 0.479301,-1.23783 0.0051,-0.80421 -0.459738,-1.46356 -1.232676,-1.74866 -0.202895,-0.0748 -0.284944,-0.0874 -0.582522,-0.089 -0.308754,-0.002 -0.375992,0.009 -0.619206,0.0945 -0.756411,0.26727 -1.226811,0.9278 -1.230145,1.72737 -0.0037,0.87944 0.599828,1.62256 1.471498,1.81193 0.232856,0.0506 0.733962,0.0128 0.967981,-0.073 z m 4.879819,0.12231 c -0.688652,-0.1745 -1.264348,-0.76819 -1.407896,-1.45191 -0.330213,-1.57279 1.275813,-2.81413 2.723547,-2.1051 0.346112,0.16951 0.68401,0.51455 0.847953,0.86587 0.156671,0.33574 0.203959,0.58012 0.183587,0.94875 -0.04347,0.78669 -0.535883,1.43645 -1.283442,1.69357 -0.255082,0.0877 -0.809718,0.11318 -1.063749,0.0488 z m 0.919364,-0.0815 c 0.446138,-0.11411 0.801234,-0.3635 1.052545,-0.73925 0.374007,-0.55918 0.420048,-1.24949 0.124491,-1.86654 -0.146863,-0.30661 -0.506406,-0.66365 -0.816699,-0.81101 -0.75055,-0.35643 -1.547474,-0.22616 -2.12394,0.3472 -0.570697,0.56762 -0.700904,1.38333 -0.339084,2.12428 0.152732,0.31276 0.502693,0.66438 0.808073,0.81189 0.417079,0.20146 0.852948,0.24638 1.294614,0.13343 z m 5.012417,0.0751 c -0.670181,-0.16216 -1.228062,-0.7252 -1.387093,-1.39991 -0.05651,-0.23975 -0.06274,-0.62104 -0.01398,-0.85483 0.146248,-0.70114 0.756193,-1.30977 1.460863,-1.45772 1.57279,-0.33021 2.81413,1.27582 2.1051,2.72355 -0.16839,0.34382 -0.50461,0.67284 -0.86134,0.84287 -0.1472,0.0702 -0.34273,0.14302 -0.4345,0.1619 -0.226,0.0465 -0.6428,0.0389 -0.86905,-0.0159 z m 0.88618,-0.0601 c 0.33531,-0.0791 0.59746,-0.22758 0.86137,-0.488 0.74153,-0.73172 0.7465,-1.86168 0.0114,-2.60072 -0.56563,-0.5687 -1.37044,-0.69895 -2.119818,-0.34307 -0.310293,0.14735 -0.669836,0.50439 -0.816699,0.811 -0.21187,0.44233 -0.249262,0.95481 -0.103248,1.41506 0.133415,0.42052 0.473517,0.8219 0.887222,1.04706 0.342803,0.18658 0.879253,0.25309 1.279733,0.15867 z m 5.01823,0.048 c -0.49205,-0.13328 -0.94698,-0.49386 -1.17278,-0.92959 -0.14389,-0.27767 -0.17735,-0.38337 -0.21436,-0.67714 -0.0997,-0.79181 0.31556,-1.57566 1.01832,-1.92202 0.58255,-0.28711 1.15687,-0.2864 1.74231,0.002 0.70003,0.34504 1.11367,1.12824 1.01395,1.91986 -0.037,0.29377 -0.0705,0.39947 -0.21435,0.67714 -0.13151,0.25376 -0.44608,0.59026 -0.67731,0.72451 -0.30054,0.17449 -0.54215,0.2418 -0.91691,0.25544 -0.27691,0.0101 -0.39298,-2e-5 -0.57887,-0.0504 z m 1.10603,-0.1038 c 0.31068,-0.1139 0.54309,-0.26515 0.74576,-0.48535 0.31075,-0.33762 0.47634,-0.76525 0.47931,-1.23784 0.005,-0.79912 -0.45077,-1.45532 -1.20745,-1.73835 -0.23241,-0.0869 -0.29979,-0.098 -0.60775,-0.0995 -0.30849,-0.001 -0.3762,0.009 -0.61921,0.0947 -0.76433,0.27007 -1.23256,0.93498 -1.22748,1.74311 0.005,0.88128 0.59921,1.60726 1.46884,1.79619 0.23285,0.0506 0.73396,0.0128 0.96798,-0.073 z M 30.88067,140.00821 c -0.383722,-0.0563 -0.765403,-0.25004 -1.054509,-0.53535 -0.394855,-0.38968 -0.585525,-0.88594 -0.556014,-1.44714 0.02024,-0.38488 0.114415,-0.66997 0.322798,-0.97718 0.355966,-0.52479 0.919324,-0.81895 1.568395,-0.81895 0.542665,0 0.939893,0.16439 1.331543,0.55104 0.292025,0.28829 0.454783,0.57735 0.531895,0.94463 0.272209,1.29652 -0.834561,2.47496 -2.144108,2.28295 z m 0.642036,-0.0809 c 0.983927,-0.20002 1.634523,-1.1534 1.453892,-2.13052 -0.108887,-0.58902 -0.491355,-1.08709 -1.022264,-1.33126 -0.297142,-0.13665 -0.479013,-0.17654 -0.800076,-0.17548 -0.715574,0.002 -1.336223,0.38626 -1.633127,1.01014 -0.148449,0.31194 -0.196198,0.51414 -0.195554,0.82811 0.0018,0.86777 0.624379,1.63293 1.463713,1.79886 0.296393,0.0586 0.445782,0.0586 0.733416,1.5e-4 z m 5.295546,0.0805 c -0.420716,-0.0655 -0.814902,-0.27718 -1.11015,-0.59608 -0.344063,-0.37163 -0.501005,-0.77219 -0.49972,-1.27542 0.0014,-0.55969 0.171878,-0.97533 0.557478,-1.35941 0.373435,-0.37197 0.800328,-0.5465 1.336713,-0.5465 0.164523,0 0.377065,0.0207 0.472315,0.046 0.654289,0.1739 1.196895,0.71119 1.370746,1.35734 0.06547,0.24331 0.06523,0.72786 -4.73e-4,0.97212 -0.165643,0.61583 -0.653726,1.13401 -1.244322,1.32106 -0.273654,0.0867 -0.633586,0.11964 -0.882587,0.0809 z m 0.791499,-0.11323 c 0.791752,-0.23268 1.324525,-0.93816 1.329078,-1.75992 0.0029,-0.51873 -0.171336,-0.93961 -0.54201,-1.30945 -0.36916,-0.36832 -0.772734,-0.53522 -1.294246,-0.53522 -0.490488,0 -0.908545,0.16364 -1.254776,0.49115 -0.609171,0.57623 -0.757762,1.42237 -0.382702,2.17928 0.260631,0.52597 0.790723,0.90283 1.40132,0.99623 0.159335,0.0244 0.564238,-0.009 0.743336,-0.0621 z m 5.074136,0.0997 c -0.57812,-0.10911 -1.0967,-0.509 -1.35113,-1.04187 -0.26231,-0.5494 -0.25915,-1.13389 0.009,-1.68369 0.15205,-0.31163 0.53188,-0.69473 0.8329,-0.84009 0.33966,-0.16402 0.5606,-0.20787 0.95769,-0.19007 0.42187,0.0189 0.64954,0.0916 0.98042,0.31286 0.66243,0.44306 0.96931,1.26509 0.76724,2.05517 -0.1622,0.63422 -0.67556,1.16184 -1.31248,1.34893 -0.24474,0.0719 -0.62079,0.0884 -0.88376,0.0387 z m 0.70558,-0.0644 c 0.37773,-0.0717 0.67439,-0.23215 0.95528,-0.5168 0.36031,-0.36514 0.53379,-0.78187 0.53482,-1.28474 6.5e-4,-0.31396 -0.0471,-0.51616 -0.19555,-0.8281 -0.22464,-0.47204 -0.65644,-0.82338 -1.18191,-0.96168 -0.21841,-0.0575 -0.66431,-0.0634 -0.8763,-0.0116 -0.70439,0.1721 -1.23338,0.71235 -1.38463,1.41409 -0.1855,0.86067 0.29959,1.77987 1.10095,2.08625 0.38381,0.14674 0.66784,0.17455 1.04734,0.10256 z m -9.712221,-5.35173 c -0.503799,-0.12198 -1.021336,-0.53463 -1.245991,-0.99346 -0.37307,-0.76194 -0.235433,-1.61295 0.356629,-2.20501 0.754461,-0.75446 1.925183,-0.75533 2.680958,-0.002 0.38332,0.38209 0.562218,0.80882 0.562218,1.34109 0,0.89437 -0.596003,1.65505 -1.455542,1.85771 -0.237458,0.056 -0.670591,0.0568 -0.898272,0.002 z m 1.059997,-0.1211 c 1.050465,-0.36935 1.525171,-1.54389 1.036403,-2.56431 -0.146863,-0.30661 -0.506406,-0.66365 -0.816699,-0.81101 -0.750018,-0.35618 -1.551939,-0.22601 -2.122481,0.34453 -0.727174,0.72718 -0.72594,1.85981 0.0028,2.59113 0.241133,0.24198 0.547617,0.41711 0.87654,0.50087 0.25888,0.0659 0.744436,0.0369 1.023413,-0.0612 z m 4.878034,0.11797 c -1.185579,-0.28748 -1.789723,-1.62459 -1.233549,-2.73013 0.239507,-0.47609 0.758506,-0.87276 1.287089,-0.98374 1.1907,-0.24999 2.31326,0.65147 2.31326,1.85763 0,0.72035 -0.42696,1.40252 -1.06949,1.70879 -0.14721,0.0702 -0.34274,0.14302 -0.43451,0.16189 -0.22385,0.046 -0.64221,0.039 -0.8628,-0.0145 z m 0.88021,-0.0616 c 0.32374,-0.0763 0.62591,-0.24877 0.87643,-0.50015 0.72548,-0.72799 0.72378,-1.85688 -0.004,-2.5885 -0.44578,-0.4482 -1.05294,-0.6305 -1.66681,-0.50046 -0.696241,0.14748 -1.256025,0.69131 -1.417788,1.37739 -0.08991,0.38132 -0.03146,0.91218 0.136732,1.24186 0.385224,0.7551 1.257416,1.1627 2.075326,0.96986 z m -3.686044,-5.30691 c -0.723457,-0.12154 -1.298921,-0.61429 -1.521636,-1.30291 -0.06711,-0.2075 -0.08235,-0.3153 -0.08274,-0.58499 -4.05e-4,-0.28499 0.01234,-0.36776 0.09236,-0.59966 0.115302,-0.33415 0.272731,-0.57469 0.531031,-0.81138 0.353314,-0.32374 0.769261,-0.48066 1.274109,-0.48066 0.504847,0 0.920794,0.15692 1.274108,0.48066 0.258314,0.2367 0.41574,0.47725 0.531011,0.81138 0.18036,0.5228 0.103755,1.16669 -0.193386,1.62547 -0.415426,0.64142 -1.174236,0.98483 -1.904863,0.86209 z m 0.718213,-0.0976 c 0.418349,-0.09 0.876142,-0.41436 1.123555,-0.79599 0.291194,-0.44915 0.365903,-1.0621 0.191223,-1.56888 -0.209691,-0.60836 -0.6777,-1.04544 -1.290245,-1.20499 -0.23279,-0.0606 -0.669879,-0.0597 -0.906357,0.002 -0.279246,0.0727 -0.557513,0.22202 -0.766711,0.41134 -0.801066,0.72492 -0.816298,1.97255 -0.03304,2.70662 0.460324,0.43142 1.043231,0.58742 1.681579,0.45004 z"
       id="path1" /></g></svg>
