<?xml version="1.0" encoding="UTF-8" standalone="no"?>
<!-- Created with Inkscape (http://www.inkscape.org/) -->

<svg
   width="210mm"
   height="297mm"
   viewBox="0 0 210 297"
   version="1.1"
   id="svg1"
   xml:space="preserve"
   inkscape:version="1.4.2 (ebf0e940, 2025-05-08)"
   sodipodi:docname="02-draft-logo-pitagorici-APS-source.svg"
   xmlns:inkscape="http://www.inkscape.org/namespaces/inkscape"
   xmlns:sodipodi="http://sodipodi.sourceforge.net/DTD/sodipodi-0.dtd"
   xmlns:xlink="http://www.w3.org/1999/xlink"
   xmlns="http://www.w3.org/2000/svg"
   xmlns:svg="http://www.w3.org/2000/svg"><sodipodi:namedview
     id="namedview1"
     pagecolor="#ffffff"
     bordercolor="#000000"
     borderopacity="0.25"
     inkscape:showpageshadow="2"
     inkscape:pageopacity="0.0"
     inkscape:pagecheckerboard="0"
     inkscape:deskcolor="#d1d1d1"
     inkscape:document-units="mm"
     inkscape:zoom="2.1404468"
     inkscape:cx="342.21827"
     inkscape:cy="347.12378"
     inkscape:window-width="1440"
     inkscape:window-height="783"
     inkscape:window-x="0"
     inkscape:window-y="25"
     inkscape:window-maximized="0"
     inkscape:current-layer="layer1" /><defs
     id="defs1"><linearGradient
       id="linearGradient2"
       inkscape:collect="always"><stop
         style="stop-color:#e0d6c6;stop-opacity:1;"
         offset="0"
         id="stop2" /><stop
         style="stop-color:#e0d6c6;stop-opacity:0;"
         offset="1"
         id="stop3" /></linearGradient><filter
       style="color-interpolation-filters:sRGB;"
       inkscape:label="Drop Shadow"
       id="filter31"
       x="-0.027736959"
       y="-0.034832667"
       width="1.0554739"
       height="1.0696653"><feFlood
         result="flood"
         in="SourceGraphic"
         flood-opacity="0.713726"
         flood-color="rgb(230,230,207)"
         id="feFlood30" /><feGaussianBlur
         result="blur"
         in="SourceGraphic"
         stdDeviation="0.400000"
         id="feGaussianBlur30" /><feOffset
         result="offset"
         in="blur"
         dx="0.000000"
         dy="0.000000"
         id="feOffset30" /><feComposite
         result="comp1"
         operator="in"
         in="offset"
         in2="flood"
         id="feComposite30" /><feComposite
         result="comp2"
         operator="over"
         in="SourceGraphic"
         in2="comp1"
         id="feComposite31" /></filter><filter
       style="color-interpolation-filters:sRGB;"
       inkscape:label="Drop Shadow"
       id="filter34"
       x="-0.27010292"
       y="-0.26954667"
       width="1.5402058"
       height="1.5390933"><feFlood
         result="flood"
         in="SourceGraphic"
         flood-opacity="0.988235"
         flood-color="rgb(230,230,207)"
         id="feFlood33" /><feGaussianBlur
         result="blur"
         in="SourceGraphic"
         stdDeviation="0.400000"
         id="feGaussianBlur33" /><feOffset
         result="offset"
         in="blur"
         dx="0.000000"
         dy="0.000000"
         id="feOffset33" /><feComposite
         result="comp1"
         operator="in"
         in="offset"
         in2="flood"
         id="feComposite33" /><feComposite
         result="comp2"
         operator="over"
         in="SourceGraphic"
         in2="comp1"
         id="feComposite34" /></filter><filter
       style="color-interpolation-filters:sRGB;"
       inkscape:label="Drop Shadow"
       id="filter36"
       x="-0.27035936"
       y="-0.26936743"
       width="1.5407187"
       height="1.5387349"><feFlood
         result="flood"
         in="SourceGraphic"
         flood-opacity="0.988235"
         flood-color="rgb(230,230,207)"
         id="feFlood34" /><feGaussianBlur
         result="blur"
         in="SourceGraphic"
         stdDeviation="0.400000"
         id="feGaussianBlur34" /><feOffset
         result="offset"
         in="blur"
         dx="0.000000"
         dy="0.000000"
         id="feOffset34" /><feComposite
         result="comp1"
         operator="in"
         in="offset"
         in2="flood"
         id="feComposite35" /><feComposite
         result="comp2"
         operator="over"
         in="SourceGraphic"
         in2="comp1"
         id="feComposite36" /></filter><filter
       style="color-interpolation-filters:sRGB;"
       inkscape:label="Drop Shadow"
       id="filter38"
       x="-0.27107164"
       y="-0.26944097"
       width="1.5421433"
       height="1.5388819"><feFlood
         result="flood"
         in="SourceGraphic"
         flood-opacity="0.988235"
         flood-color="rgb(230,230,207)"
         id="feFlood36" /><feGaussianBlur
         result="blur"
         in="SourceGraphic"
         stdDeviation="0.400000"
         id="feGaussianBlur36" /><feOffset
         result="offset"
         in="blur"
         dx="0.000000"
         dy="0.000000"
         id="feOffset36" /><feComposite
         result="comp1"
         operator="in"
         in="offset"
         in2="flood"
         id="feComposite37" /><feComposite
         result="comp2"
         operator="over"
         in="SourceGraphic"
         in2="comp1"
         id="feComposite38" /></filter><filter
       style="color-interpolation-filters:sRGB;"
       inkscape:label="Drop Shadow"
       id="filter40"
       x="-0.2704556"
       y="-0.26932251"
       width="1.5409112"
       height="1.538645"><feFlood
         result="flood"
         in="SourceGraphic"
         flood-opacity="0.988235"
         flood-color="rgb(230,230,207)"
         id="feFlood38" /><feGaussianBlur
         result="blur"
         in="SourceGraphic"
         stdDeviation="0.400000"
         id="feGaussianBlur38" /><feOffset
         result="offset"
         in="blur"
         dx="0.000000"
         dy="0.000000"
         id="feOffset38" /><feComposite
         result="comp1"
         operator="in"
         in="offset"
         in2="flood"
         id="feComposite39" /><feComposite
         result="comp2"
         operator="over"
         in="SourceGraphic"
         in2="comp1"
         id="feComposite40" /></filter><filter
       style="color-interpolation-filters:sRGB;"
       inkscape:label="Drop Shadow"
       id="filter42"
       x="-0.26852074"
       y="-0.27033393"
       width="1.5370415"
       height="1.5406679"><feFlood
         result="flood"
         in="SourceGraphic"
         flood-opacity="0.988235"
         flood-color="rgb(230,230,207)"
         id="feFlood40" /><feGaussianBlur
         result="blur"
         in="SourceGraphic"
         stdDeviation="0.400000"
         id="feGaussianBlur40" /><feOffset
         result="offset"
         in="blur"
         dx="0.000000"
         dy="0.000000"
         id="feOffset40" /><feComposite
         result="comp1"
         operator="in"
         in="offset"
         in2="flood"
         id="feComposite41" /><feComposite
         result="comp2"
         operator="over"
         in="SourceGraphic"
         in2="comp1"
         id="feComposite42" /></filter><filter
       style="color-interpolation-filters:sRGB;"
       inkscape:label="Drop Shadow"
       id="filter44"
       x="-0.26854815"
       y="-0.27007285"
       width="1.5370963"
       height="1.5401457"><feFlood
         result="flood"
         in="SourceGraphic"
         flood-opacity="0.988235"
         flood-color="rgb(230,230,207)"
         id="feFlood42" /><feGaussianBlur
         result="blur"
         in="SourceGraphic"
         stdDeviation="0.400000"
         id="feGaussianBlur42" /><feOffset
         result="offset"
         in="blur"
         dx="0.000000"
         dy="0.000000"
         id="feOffset42" /><feComposite
         result="comp1"
         operator="in"
         in="offset"
         in2="flood"
         id="feComposite43" /><feComposite
         result="comp2"
         operator="over"
         in="SourceGraphic"
         in2="comp1"
         id="feComposite44" /></filter><filter
       style="color-interpolation-filters:sRGB;"
       inkscape:label="Drop Shadow"
       id="filter46"
       x="-0.27036431"
       y="-0.27112458"
       width="1.5407286"
       height="1.5422492"><feFlood
         result="flood"
         in="SourceGraphic"
         flood-opacity="0.988235"
         flood-color="rgb(230,230,207)"
         id="feFlood44" /><feGaussianBlur
         result="blur"
         in="SourceGraphic"
         stdDeviation="0.400000"
         id="feGaussianBlur44" /><feOffset
         result="offset"
         in="blur"
         dx="0.000000"
         dy="0.000000"
         id="feOffset44" /><feComposite
         result="comp1"
         operator="in"
         in="offset"
         in2="flood"
         id="feComposite45" /><feComposite
         result="comp2"
         operator="over"
         in="SourceGraphic"
         in2="comp1"
         id="feComposite46" /></filter><filter
       style="color-interpolation-filters:sRGB;"
       inkscape:label="Drop Shadow"
       id="filter48"
       x="-0.26771015"
       y="-0.27013234"
       width="1.5354203"
       height="1.5402647"><feFlood
         result="flood"
         in="SourceGraphic"
         flood-opacity="0.988235"
         flood-color="rgb(230,230,207)"
         id="feFlood46" /><feGaussianBlur
         result="blur"
         in="SourceGraphic"
         stdDeviation="0.400000"
         id="feGaussianBlur46" /><feOffset
         result="offset"
         in="blur"
         dx="0.000000"
         dy="0.000000"
         id="feOffset46" /><feComposite
         result="comp1"
         operator="in"
         in="offset"
         in2="flood"
         id="feComposite47" /><feComposite
         result="comp2"
         operator="over"
         in="SourceGraphic"
         in2="comp1"
         id="feComposite48" /></filter><filter
       style="color-interpolation-filters:sRGB;"
       inkscape:label="Drop Shadow"
       id="filter50"
       x="-0.27015895"
       y="-0.27037004"
       width="1.5403179"
       height="1.5407401"><feFlood
         result="flood"
         in="SourceGraphic"
         flood-opacity="0.988235"
         flood-color="rgb(230,230,207)"
         id="feFlood48" /><feGaussianBlur
         result="blur"
         in="SourceGraphic"
         stdDeviation="0.400000"
         id="feGaussianBlur48" /><feOffset
         result="offset"
         in="blur"
         dx="0.000000"
         dy="0.000000"
         id="feOffset48" /><feComposite
         result="comp1"
         operator="in"
         in="offset"
         in2="flood"
         id="feComposite49" /><feComposite
         result="comp2"
         operator="over"
         in="SourceGraphic"
         in2="comp1"
         id="feComposite50" /></filter><filter
       style="color-interpolation-filters:sRGB;"
       inkscape:label="Drop Shadow"
       id="filter52"
       x="-0.27005796"
       y="-0.26904254"
       width="1.5401159"
       height="1.5380851"><feFlood
         result="flood"
         in="SourceGraphic"
         flood-opacity="0.988235"
         flood-color="rgb(230,230,207)"
         id="feFlood50" /><feGaussianBlur
         result="blur"
         in="SourceGraphic"
         stdDeviation="0.400000"
         id="feGaussianBlur50" /><feOffset
         result="offset"
         in="blur"
         dx="0.000000"
         dy="0.000000"
         id="feOffset50" /><feComposite
         result="comp1"
         operator="in"
         in="offset"
         in2="flood"
         id="feComposite51" /><feComposite
         result="comp2"
         operator="over"
         in="SourceGraphic"
         in2="comp1"
         id="feComposite52" /></filter><filter
       style="color-interpolation-filters:sRGB;"
       inkscape:label="Drop Shadow"
       id="filter72"
       x="-0.026579642"
       y="-0.042495484"
       width="1.0327134"
       height="1.2266426"><feFlood
         result="flood"
         in="SourceGraphic"
         flood-opacity="0.301961"
         flood-color="rgb(230,230,207)"
         id="feFlood71" /><feGaussianBlur
         result="blur"
         in="SourceGraphic"
         stdDeviation="0.100000"
         id="feGaussianBlur71" /><feOffset
         result="offset"
         in="blur"
         dx="-0.400000"
         dy="0.400000"
         id="feOffset71" /><feComposite
         result="comp1"
         operator="in"
         in="offset"
         in2="flood"
         id="feComposite71" /><feComposite
         result="fbSourceGraphic"
         operator="over"
         in="SourceGraphic"
         in2="comp1"
         id="feComposite72" /><feColorMatrix
         result="fbSourceGraphicAlpha"
         in="fbSourceGraphic"
         values="0 0 0 -1 0 0 0 0 -1 0 0 0 0 -1 0 0 0 0 1 0"
         id="feColorMatrix72" /><feFlood
         id="feFlood72"
         result="flood"
         in="fbSourceGraphic"
         flood-opacity="0.400000"
         flood-color="rgb(203,203,156)" /><feGaussianBlur
         id="feGaussianBlur72"
         result="blur"
         in="fbSourceGraphic"
         stdDeviation="0.000000" /><feOffset
         id="feOffset72"
         result="offset"
         in="blur"
         dx="-0.400000"
         dy="0.400000" /><feComposite
         id="feComposite73"
         result="comp1"
         operator="in"
         in="offset"
         in2="flood" /><feComposite
         id="feComposite74"
         result="comp2"
         operator="over"
         in="fbSourceGraphic"
         in2="comp1" /></filter><filter
       style="color-interpolation-filters:sRGB;"
       inkscape:label="Drop Shadow"
       id="filter83"
       x="-0.010222939"
       y="0"
       width="1.0102229"
       height="1.0708258"><feFlood
         result="flood"
         in="SourceGraphic"
         flood-opacity="0.501961"
         flood-color="rgb(4,4,4)"
         id="feFlood82" /><feGaussianBlur
         result="blur"
         in="SourceGraphic"
         stdDeviation="0.000000"
         id="feGaussianBlur82" /><feOffset
         result="offset"
         in="blur"
         dx="-0.400000"
         dy="0.400000"
         id="feOffset82" /><feComposite
         result="comp1"
         operator="in"
         in="offset"
         in2="flood"
         id="feComposite82" /><feComposite
         result="comp2"
         operator="over"
         in="SourceGraphic"
         in2="comp1"
         id="feComposite83" /></filter><filter
       style="color-interpolation-filters:sRGB;"
       inkscape:label="Drop Shadow"
       id="filter97"
       x="-0.20012266"
       y="-0.19935385"
       width="1.4002453"
       height="1.3987077"><feFlood
         result="flood"
         in="SourceGraphic"
         flood-opacity="0.501961"
         flood-color="rgb(4,4,4)"
         id="feFlood96" /><feGaussianBlur
         result="blur"
         in="SourceGraphic"
         stdDeviation="0.300000"
         id="feGaussianBlur96" /><feOffset
         result="offset"
         in="blur"
         dx="0.000000"
         dy="0.000000"
         id="feOffset96" /><feComposite
         result="comp1"
         operator="in"
         in="offset"
         in2="flood"
         id="feComposite96" /><feComposite
         result="comp2"
         operator="over"
         in="SourceGraphic"
         in2="comp1"
         id="feComposite97" /></filter><filter
       style="color-interpolation-filters:sRGB;"
       inkscape:label="Drop Shadow"
       id="filter99"
       x="-0.20012266"
       y="-0.19935385"
       width="1.4002453"
       height="1.3987077"><feFlood
         result="flood"
         in="SourceGraphic"
         flood-opacity="0.501961"
         flood-color="rgb(4,4,4)"
         id="feFlood97" /><feGaussianBlur
         result="blur"
         in="SourceGraphic"
         stdDeviation="0.300000"
         id="feGaussianBlur97" /><feOffset
         result="offset"
         in="blur"
         dx="0.000000"
         dy="0.000000"
         id="feOffset97" /><feComposite
         result="comp1"
         operator="in"
         in="offset"
         in2="flood"
         id="feComposite98" /><feComposite
         result="comp2"
         operator="over"
         in="SourceGraphic"
         in2="comp1"
         id="feComposite99" /></filter><linearGradient
       inkscape:collect="always"
       xlink:href="#linearGradient2"
       id="linearGradient3"
       x1="127.30437"
       y1="84.595936"
       x2="159.9239"
       y2="84.595936"
       gradientUnits="userSpaceOnUse" /><filter
       style="color-interpolation-filters:sRGB;"
       inkscape:label="Drop Shadow"
       id="filter13"
       x="-0.035961172"
       y="-0.030415021"
       width="1.0666992"
       height="1.0659983"><feFlood
         result="flood"
         in="SourceGraphic"
         flood-opacity="0.996078"
         flood-color="rgb(128,0,32)"
         id="feFlood12" /><feGaussianBlur
         result="blur"
         in="SourceGraphic"
         stdDeviation="0.300000"
         id="feGaussianBlur12" /><feOffset
         result="offset"
         in="blur"
         dx="-0.200000"
         dy="0.200000"
         id="feOffset12" /><feComposite
         result="comp1"
         operator="in"
         in="offset"
         in2="flood"
         id="feComposite12" /><feComposite
         result="comp2"
         operator="over"
         in="SourceGraphic"
         in2="comp1"
         id="feComposite13" /></filter><filter
       style="color-interpolation-filters:sRGB;"
       inkscape:label="Drop Shadow"
       id="filter53"
       x="-0.020371702"
       y="-0.13134879"
       width="1.0407434"
       height="1.2626976"><feFlood
         result="flood"
         in="SourceGraphic"
         flood-opacity="1.000000"
         flood-color="rgb(197,95,115)"
         id="feFlood32" /><feGaussianBlur
         result="blur"
         in="SourceGraphic"
         stdDeviation="0.300000"
         id="feGaussianBlur32" /><feOffset
         result="offset"
         in="blur"
         dx="0.000000"
         dy="-0.000000"
         id="feOffset32" /><feComposite
         result="comp1"
         operator="in"
         in="offset"
         in2="flood"
         id="feComposite32" /><feComposite
         result="comp2"
         operator="over"
         in="SourceGraphic"
         in2="comp1"
         id="feComposite53" /></filter></defs><g
     inkscape:label="Layer 1"
     inkscape:groupmode="layer"
     id="layer1"><path
       id="rect53"
       style="fill:#e0d6c6;stroke-width:1.16992;stroke-linecap:round;stroke-opacity:0.323457;paint-order:markers fill stroke"
       d="m 112.82537,107.52017 v 3.36908 h 9.53749 v -3.36908 z m 7.98417,0.37269 c 0.35424,0 0.58034,0.13737 0.75241,0.4328 l -0.26676,0.16124 c -0.11806,-0.20749 -0.27656,-0.30551 -0.51947,-0.30551 -0.27328,0 -0.43523,0.1547 -0.43523,0.38331 0,0.26379 0.13194,0.37646 0.5233,0.40805 0.45547,0.0352 0.74539,0.24242 0.74539,0.74185 0,0.49941 -0.36414,0.74185 -0.81622,0.74185 -0.42173,0 -0.70862,-0.20395 -0.85707,-0.5205 l 0.24633,-0.16124 c 0.15519,0.26385 0.31356,0.37976 0.60371,0.37976 0.32389,0 0.48245,-0.15849 0.48245,-0.43634 0,-0.30246 -0.12837,-0.40479 -0.5501,-0.44341 -0.41835,-0.0387 -0.69496,-0.27379 -0.69496,-0.68881 0,-0.40446 0.29701,-0.69305 0.78622,-0.69305 z m -6.31406,0.0353 h 0.31716 l 0.92727,2.49712 h -0.31718 l -0.24952,-0.66123 h -1.03193 l -0.24314,0.66123 h -0.32419 z m 2.53418,0 h 0.83344 c 0.5162,0 0.80984,0.33749 0.80984,0.76307 0,0.4115 -0.3004,0.74539 -0.80984,0.74539 h -0.52585 v 0.98866 h -0.30759 z m 0.30759,0.29845 v 0.90732 h 0.50607 c 0.29015,0 0.51948,-0.1543 0.51948,-0.4427 0,-0.30247 -0.22979,-0.46462 -0.52331,-0.46462 z m -2.68352,0.1478 -0.4046,1.1011 h 0.81623 z" /><path
       style="fill:#83c167;fill-opacity:1;stroke-width:0;stroke-dasharray:none;filter:url(#filter44)"
       d="m 113.75054,86.238392 c -0.33353,-0.133109 -0.68929,-0.450173 -0.89065,-0.793769 -0.43692,-0.745543 -0.30938,-1.557462 0.34006,-2.164942 0.70632,-0.660678 1.6103,-0.688055 2.33164,-0.07061 1.28624,1.100976 0.52818,3.126298 -1.16397,3.109801 -0.23421,-0.0024 -0.5119,-0.0385 -0.61708,-0.08048 z"
       id="path3"
       inkscape:export-filename="02-draft-logo-pitagorici-APS.png"
       inkscape:export-xdpi="930.51849"
       inkscape:export-ydpi="930.51849" /><path
       style="fill:#83c167;fill-opacity:1;stroke-width:0;stroke-dasharray:none;filter:url(#filter46)"
       d="m 119.59373,86.180086 c -0.41381,-0.188458 -0.8614,-0.699191 -0.97168,-1.10874 -0.38778,-1.440116 1.04431,-2.731013 2.38831,-2.152837 0.69843,0.300455 1.10102,0.902594 1.09794,1.642144 -0.003,0.708948 -0.44585,1.371359 -1.0991,1.643822 -0.38499,0.160573 -1.0339,0.149394 -1.41547,-0.02439 z"
       id="path4" /><path
       style="fill:#5cd0b3;fill-opacity:1;stroke-width:0;stroke-dasharray:none;filter:url(#filter40)"
       d="m 110.66908,91.584671 c -0.87566,-0.444656 -1.26285,-1.502574 -0.86201,-2.355316 0.55548,-1.18174 2.07533,-1.413732 2.94466,-0.449479 0.35802,0.397118 0.48045,0.77284 0.43891,1.347033 -0.0392,0.541939 -0.30778,0.980268 -0.82219,1.341806 -0.44977,0.316111 -1.20387,0.367567 -1.69937,0.115956 z"
       id="path5" /><path
       style="fill:#5cd0b3;fill-opacity:1;stroke-width:0;stroke-dasharray:none;filter:url(#filter42)"
       d="m 116.65162,91.597109 c -0.89323,-0.414441 -1.32516,-1.555641 -0.90243,-2.384274 0.20045,-0.392901 0.68608,-0.830202 1.05845,-0.95309 0.43974,-0.145129 1.14394,-0.05656 1.51789,0.190907 0.35113,0.232368 0.73983,0.796944 0.81142,1.178582 0.0783,0.417123 -0.0378,0.923096 -0.30253,1.319252 -0.46846,0.700947 -1.44476,0.99106 -2.1828,0.648623 z"
       id="path6" /><path
       style="fill:#5cd0b3;fill-opacity:1;stroke-width:0;stroke-dasharray:none;filter:url(#filter48)"
       d="m 122.52109,91.555588 c -0.73833,-0.343763 -1.16752,-1.251961 -0.95327,-2.017189 0.22357,-0.798528 0.93961,-1.355693 1.74225,-1.355693 0.5246,0 1.14023,0.305848 1.43516,0.712991 1.08944,1.503934 -0.53482,3.446423 -2.22414,2.659891 z"
       id="path7" /><path
       style="fill:#ff862f;fill-opacity:1;stroke-width:0;stroke-dasharray:none;filter:url(#filter38)"
       d="m 107.87463,97.057868 c -0.68909,-0.249367 -1.18307,-0.958577 -1.183,-1.69841 8e-5,-0.718937 0.31927,-1.248916 0.94234,-1.564651 1.41197,-0.715502 2.9631,0.558326 2.52306,2.072013 -0.27761,0.954958 -1.36573,1.52278 -2.2824,1.191048 z"
       id="path8" /><path
       style="fill:#ff862f;fill-opacity:1;stroke-width:0;stroke-dasharray:none;filter:url(#filter34)"
       d="m 113.76954,97.035826 c -0.46081,-0.163174 -0.9849,-0.7639 -1.10568,-1.267381 -0.26886,-1.12073 0.57369,-2.178367 1.73386,-2.176489 0.50062,7.94e-4 0.89415,0.165592 1.25338,0.524828 0.35844,0.358444 0.51786,0.737211 0.51667,1.227629 -0.001,0.534062 -0.2083,0.993879 -0.60442,1.342554 -0.53042,0.4669 -1.13074,0.58365 -1.79381,0.348859 z"
       id="path9" /><path
       style="fill:#ff862f;fill-opacity:1;stroke-width:0;stroke-dasharray:none;filter:url(#filter36)"
       d="m 119.76777,97.053407 c -0.91728,-0.327342 -1.40171,-1.281117 -1.13626,-2.237086 0.10784,-0.388329 0.56877,-0.891884 0.98588,-1.077032 1.16831,-0.518591 2.49261,0.353889 2.49261,1.642192 0,1.196719 -1.22451,2.070802 -2.34223,1.671926 z"
       id="path10" /><path
       style="fill:#ff862f;fill-opacity:1;stroke-width:0;stroke-dasharray:none;filter:url(#filter50)"
       d="m 125.5522,96.985531 c -0.96629,-0.462121 -1.31954,-1.51642 -0.82578,-2.464583 0.56908,-1.092785 2.0848,-1.253225 2.8952,-0.306456 0.95105,1.111094 0.25729,2.77554 -1.21459,2.913994 -0.38882,0.03657 -0.52817,0.01328 -0.85483,-0.142955 z"
       id="path11" /><path
       style="fill:#c55f73;fill-opacity:1;stroke-width:0;stroke-dasharray:none;filter:url(#filter31)"
       d="m 100.34386,99.37701 c 3.62918,-5.814009 14.02852,-22.399706 16.18986,-25.820856 0.43716,-0.691976 0.81672,-1.256985 0.84348,-1.255578 0.0268,0.0013 0.41261,0.584991 0.85745,1.29685 0.44483,0.711859 2.636,4.203491 4.86926,7.759181 6.19947,9.870506 11.54876,18.423922 11.54876,18.466263 0,0.02093 -7.78745,0.03804 -17.30543,0.03804 h -17.30543 z m 29.60386,-0.419142 3.07615,-0.05117 -0.16705,-0.277778 c -0.60386,-1.00412 -13.72956,-21.962155 -15.048,-24.027397 -0.21063,-0.329935 -0.40932,-0.599951 -0.44154,-0.600033 -0.0744,-1.93e-4 -0.0617,-0.02013 -4.54571,7.122843 -6.32384,10.073857 -10.9892,17.543227 -11.03975,17.674952 -0.0408,0.106267 0.0318,0.129257 0.48145,0.15239 1.00805,0.05186 24.62113,0.05714 27.68445,0.0062 z"
       id="path12"
       inkscape:export-filename="tetraktys.png"
       inkscape:export-xdpi="930.51849"
       inkscape:export-ydpi="930.51849"
       transform="matrix(1,0,0,0.9938087,0,-0.08747578)" /><path
       style="fill:#ffe680;stroke-width:0;filter:url(#filter99)"
       d="m 117.11537,80.950279 c -0.2577,-0.03364 -0.60504,-0.17771 -0.81249,-0.337005 -0.2586,-0.198563 -0.51291,-0.532261 -0.62252,-0.816861 -0.13008,-0.337746 -0.15131,-0.84096 -0.0485,-1.148377 0.10118,-0.302363 0.24192,-0.530575 0.46888,-0.760284 0.35924,-0.363598 0.68903,-0.509097 1.19537,-0.527389 0.37386,-0.01351 0.54976,0.02186 0.84905,0.170689 0.38366,0.19079 0.63465,0.436159 0.8246,0.80614 0.14978,0.291746 0.19619,0.488394 0.19483,0.825505 -0.002,0.504554 -0.17352,0.917355 -0.52515,1.264125 -0.29845,0.294318 -0.67857,0.475491 -1.09859,0.523607 -0.22083,0.0253 -0.23063,0.02529 -0.42553,-1.5e-4 z"
       id="path3-1"
       inkscape:export-filename="03-draft-logo-pitagorici.png"
       inkscape:export-xdpi="750.9267"
       inkscape:export-ydpi="750.9267" /><text
       xml:space="preserve"
       style="font-style:normal;font-variant:normal;font-weight:normal;font-stretch:normal;font-size:6.27185px;font-family:'Boheld Free DEMO';-inkscape-font-specification:'Boheld Free DEMO, Normal';font-variant-ligatures:normal;font-variant-caps:normal;font-variant-numeric:normal;font-variant-east-asian:normal;text-align:end;letter-spacing:-0.181744px;word-spacing:0.0339545px;writing-mode:lr-tb;direction:ltr;text-anchor:end;fill:#e0d6c6;fill-opacity:1;stroke:none;stroke-width:0.146091;stroke-dasharray:none;stroke-opacity:1;paint-order:markers fill stroke;filter:url(#filter53)"
       x="165.61804"
       y="83.80069"
       id="text1"
       transform="matrix(0.79515489,0,0,1.2576166,0,0.27206157)"><tspan
         sodipodi:role="line"
         id="tspan1"
         style="font-style:normal;font-variant:normal;font-weight:normal;font-stretch:normal;font-size:6.27185px;font-family:'Boheld Free DEMO';-inkscape-font-specification:'Boheld Free DEMO, Normal';font-variant-ligatures:normal;font-variant-caps:normal;font-variant-numeric:normal;font-variant-east-asian:normal;letter-spacing:-0.181744px;fill:#e0d6c6;fill-opacity:1;stroke:none;stroke-width:0.146091;stroke-dasharray:none;stroke-opacity:1"
         x="165.43629"
         y="83.80069">PITAGORICI</tspan></text><path
       id="path1"
       style="fill:none;fill-opacity:0.997531;stroke:#c55f73;stroke-width:0.914;stroke-linecap:round;stroke-dasharray:none;paint-order:markers fill stroke;filter:url(#filter13)"
       d="m 121.59439,75.744837 c 0.75914,0.176556 1.85075,0.635418 3.19339,1.213752 2.29056,0.986659 4.35332,2.414374 6.08566,4.178606 3.46468,3.528464 5.60764,8.402991 5.60764,13.787245 0,10.76851 -8.5718,19.49811 -19.14565,19.49811 -10.57385,0 -19.14565,-8.72961 -19.14565,-19.49811 0,-5.384255 2.14295,-10.258783 5.60763,-13.787247 1.73234,-1.764231 3.79511,-3.191947 6.08567,-4.178605 1.14528,-0.493329 2.1361,-0.879246 3.3349,-1.234023"
       sodipodi:nodetypes="csssssssc"
       transform="matrix(1.0566744,0,0,1.0304349,-6.5516921,-2.7917854)"
       inkscape:export-filename="02-draft-logo-pitagorici-APS.png"
       inkscape:export-xdpi="750.9267"
       inkscape:export-ydpi="750.9267" /></g></svg>
